<?xml version="1.0" encoding="UTF-8"?><svg id="Ebene_1" xmlns="http://www.w3.org/2000/svg" xmlns:xlink="http://www.w3.org/1999/xlink" viewBox="0 0 267.28 171.5"><defs><linearGradient id="Unbenannter_Verlauf_13" x1="82.3" y1="79.44" x2="68.88" y2="66.24" gradientUnits="userSpaceOnUse"><stop offset="0" stop-color="#95c11f"/><stop offset=".12" stop-color="#92c023"/><stop offset=".27" stop-color="#8bbe31"/><stop offset=".42" stop-color="#80bb49"/><stop offset=".58" stop-color="#70b769"/><stop offset=".75" stop-color="#5cb293"/><stop offset=".92" stop-color="#43acc5"/><stop offset="1" stop-color="#36a9e1"/></linearGradient><linearGradient id="Unbenannter_Verlauf_34" x1="114.65" y1="122.91" x2="24.35" y2="124.06" gradientUnits="userSpaceOnUse"><stop offset=".3" stop-color="#95c11f"/><stop offset=".92" stop-color="#ffef26"/></linearGradient><linearGradient id="Unbenannter_Verlauf_30" x1="69.73" y1="25.68" x2="19.99" y2="128.4" gradientUnits="userSpaceOnUse"><stop offset="0" stop-color="#29235c"/><stop offset=".1" stop-color="#2a3770"/><stop offset=".37" stop-color="#2f68a0"/><stop offset=".6" stop-color="#328bc3"/><stop offset=".79" stop-color="#34a1d9"/><stop offset=".91" stop-color="#35a9e1"/></linearGradient><linearGradient id="Unbenannter_Verlauf_29" x1="2.04" y1="113.29" x2="48.96" y2="144.52" gradientUnits="userSpaceOnUse"><stop offset=".55" stop-color="#fdeb19"/><stop offset=".59" stop-color="#eee51a"/><stop offset=".7" stop-color="#d1d81d"/><stop offset=".8" stop-color="#bcd01f"/><stop offset=".9" stop-color="#afca20"/><stop offset="1" stop-color="#abc921"/></linearGradient><linearGradient id="Unbenannter_Verlauf_10" x1="12.49" y1="132" x2="62.19" y2="132" gradientUnits="userSpaceOnUse"><stop offset="0" stop-color="#ffed00"/><stop offset=".22" stop-color="#ffed03"/><stop offset=".42" stop-color="#ffed0e"/><stop offset=".61" stop-color="#ffee21"/><stop offset=".81" stop-color="#ffef3c"/><stop offset=".99" stop-color="#fff05d"/><stop offset="1" stop-color="#fff15f"/></linearGradient></defs><path d="m94.28,3.55c0-1.83.83-2.74,2.49-2.74h9.75c1.66,0,2.49.91,2.49,2.74v51.63c0,1.83-.83,2.74-2.49,2.74h-9.75c-1.66,0-2.49-.91-2.49-2.74V3.55Z" fill="#29235c" stroke-width="0"/><path d="m154.59,54.77c0,1.83-.83,2.74-2.49,2.74h-8.87c-1.56,0-2.62-.67-3.15-2.02l-10.56-24.28v23.56c0,1.83-.83,2.74-2.49,2.74h-9.24c-1.66,0-2.49-.91-2.49-2.74V3.14c0-1.83.83-2.74,2.49-2.74h8.8c1.56,0,2.62.67,3.15,2.02l10.63,24.28V3.14c0-1.83.83-2.74,2.49-2.74h9.24c1.66,0,2.49.91,2.49,2.74v51.63Z" fill="#29235c" stroke-width="0"/><path d="m189.58,54.58c-3.45,2.77-7.81,4.15-13.09,4.15s-10.17-.86-14.08-2.58c-.88-.38-1.48-.79-1.8-1.25-.32-.46-.38-1.17-.18-2.14l1.25-7.66c.34-1.94,1.42-2.53,3.23-1.77,2.54,1.08,5.28,1.61,8.21,1.61,4.4,0,6.6-1.16,6.6-3.47,0-1.02-.44-1.94-1.32-2.74s-2.62-1.96-5.21-3.47c-1.86-.97-3.42-1.91-4.69-2.82-1.27-.91-2.57-2.1-3.89-3.55-1.32-1.45-2.31-3.23-2.97-5.33-.66-2.1-.99-4.49-.99-7.18,0-5.75,1.47-9.92,4.4-12.5,2.93-2.58,7.46-3.87,13.57-3.87,4.79,0,8.8.73,12.03,2.18,1.52.7,2.15,1.83,1.91,3.39l-1.25,7.58c-.29,1.77-1.34,2.39-3.15,1.86-2.3-.81-4.84-1.21-7.63-1.21-1.66,0-2.88.21-3.67.65-.78.43-1.17,1.24-1.17,2.42,0,2.1,2.13,4.33,6.38,6.7,2.3,1.34,4.04,2.46,5.24,3.35,1.2.89,2.46,2.04,3.78,3.47,1.32,1.42,2.26,3.05,2.82,4.88.56,1.83.84,3.98.84,6.45,0,5.81-1.72,10.1-5.17,12.87Z" fill="#29235c" stroke-width="0"/><path d="m214.26,35.66v8.23h15.18c1.66,0,2.49.91,2.49,2.74v8.55c0,1.83-.83,2.74-2.49,2.74h-27.21c-1.66,0-2.49-.91-2.49-2.74V3.55c0-1.83.83-2.74,2.49-2.74h26.84c1.66,0,2.49.91,2.49,2.74v8.55c0,1.83-.83,2.74-2.49,2.74h-14.81v7.34h13.86c1.66,0,2.49.91,2.49,2.74v7.99c0,1.83-.83,2.74-2.49,2.74h-13.86Z" fill="#29235c" stroke-width="0"/><path d="m252.1,43.32h12.69c1.66,0,2.49.91,2.49,2.74v9.12c0,1.83-.83,2.74-2.49,2.74h-24.93c-1.66,0-2.49-.91-2.49-2.74V3.55c0-1.83.83-2.74,2.49-2.74h9.75c1.66,0,2.49.91,2.49,2.74v39.77Z" fill="#29235c" stroke-width="0"/><path d="m123.86,109.6c0-1.69.83-2.54,2.49-2.54h8.36c1.71,0,2.57.85,2.57,2.54v8.78c0,1.69-.81,2.54-2.42,2.54h-8.58c-1.61,0-2.42-.85-2.42-2.54v-8.78Z" fill="#29235c" stroke-width="0"/><path d="m146.64,110.22c0-1.39.42-2.75,1.25-4.08l16.28-25.88h-14.23c-1.66,0-2.49-.87-2.49-2.62v-8.62c0-1.75.83-2.62,2.49-2.62h28.45c1.66,0,2.49.87,2.49,2.62v8.09c0,1.39-.42,2.75-1.25,4.08l-16.21,25.88h15.62c1.61,0,2.42.87,2.42,2.62v8.62c0,1.75-.81,2.62-2.42,2.62h-29.92c-1.66,0-2.49-.87-2.49-2.62v-8.09Z" fill="#8cbf3a" stroke-width="0"/><path d="m214.43,109.29c1.66-.56,2.62,0,2.86,1.69l.73,5.47c.2,1.33-.39,2.36-1.76,3.08-3.18,1.44-6.92,2.16-11.22,2.16-6.84,0-11.9-1.75-15.18-5.24-3.28-3.49-4.91-9.11-4.91-16.87,0-14.48,5.92-21.72,17.75-21.72,11.2,0,16.79,6.7,16.79,20.1v4.47c0,1.75-.86,2.62-2.57,2.62h-18.33c.29,2.16,1.03,3.66,2.2,4.5,1.17.85,3.03,1.27,5.57,1.27s5.33-.51,8.07-1.54Zm-14.92-19.18c-.66,1.18-1.09,3.31-1.28,6.39h8.73v-.85c0-4.88-1.37-7.32-4.11-7.32-1.56,0-2.68.59-3.34,1.77Z" fill="#8cbf3a" stroke-width="0"/><path d="m239.56,73.1c0,1.59-.76,2.39-2.27,2.39h-9.53c-1.52,0-2.27-.8-2.27-2.39v-4.31c0-1.59.76-2.39,2.27-2.39h9.53c1.52,0,2.27.79,2.27,2.39v4.31Zm-.15,45.44c0,1.59-.76,2.39-2.27,2.39h-9.24c-1.52,0-2.27-.8-2.27-2.39v-37.5c0-1.59.76-2.39,2.27-2.39h9.24c1.52,0,2.27.8,2.27,2.39v37.5Z" fill="#8cbf3a" stroke-width="0"/><path d="m260.54,92.89v12.94c0,1.33.2,2.25.59,2.73.39.49,1.12.73,2.2.73.1,0,.37-.01.81-.04.44-.03.76-.04.95-.04,1.42,0,2.13.77,2.13,2.31v6.85c0,1.28-.66,2.1-1.98,2.46-1.47.41-3.45.62-5.94.62-4.45,0-7.6-.98-9.46-2.93-1.86-1.95-2.79-5.39-2.79-10.32v-15.33h-1.91c-1.47,0-2.2-.77-2.2-2.31v-7.16c0-1.54.73-2.31,2.2-2.31h1.98v-8.78c0-1.54.78-2.31,2.35-2.31h8.65c1.56,0,2.35.77,2.35,2.31v8.78h4.47c1.52,0,2.27.8,2.27,2.39v7.01c0,1.59-.76,2.39-2.27,2.39h-4.4Z" fill="#8cbf3a" stroke-width="0"/><path d="m68.5,71.31c-1.44,5.3-3.01,10.7-4.69,16.09,2.47-1.41,4.93-2.72,7.36-3.94,7.97-3.98,15.63-6.9,22.54-8.3-5.15-2.44-11.24-7.15-15.26-15.92-1.72-3.73-3.06-8.18-3.82-13.48-1.64,8.01-3.71,16.65-6.13,25.55" fill="url(#Unbenannter_Verlauf_13)" stroke-width="0"/><path d="m102.02,77.86c-5.2,0-11.56,1.45-18.47,4.07-6.75,2.55-14.03,6.19-21.37,10.6-5.39,16.69-11.77,33.17-18.62,46.98-6.42,12.92-13.22,23.49-20.25,29.79,1.69-.53,3.45-1.15,5.26-1.86,6.73-2.63,14.24-6.4,21.93-10.95,15.4-9.1,31.55-21.29,43.98-33.48,8.29-8.12,14.92-16.26,18.56-23.34,2.09-4.05,3.18-7.73,3.17-10.78-.01-2.74-.81-4.96-2.59-6.89-1.31-1.4-2.9-2.42-4.83-3.1-1.29-.46-2.73-.76-4.3-.92l-.87-.05c-.51-.03-1.04-.05-1.58-.05h-.02Z" fill="url(#Unbenannter_Verlauf_34)" stroke-width="0"/><path d="m72.84,3.7c-.31,0-.87.13-1.6.5-.73.38-1.63.99-2.62,1.81-1.99,1.65-4.37,4.18-6.97,7.38-5.21,6.42-11.36,15.58-17.7,26.29-12.67,21.42-26.13,49.04-34.82,73.58-4.78,13.46-8.11,26.02-9.13,35.99,1.13-2.76,2.61-5.59,4.38-8.46,4.3-6.98,10.32-14.24,17.38-21.31,10.84-10.85,24.13-21.26,37.41-29.35,6.67-20.83,11.78-41.92,14.31-58.19,0-.04.01-.08.02-.12,0-.01,0-.03,0-.04.17-1.12.33-2.22.48-3.29,0-.04.01-.08.02-.12,0-.01,0-.02,0-.04.23-1.66.42-3.25.59-4.78h0c.42-3.86.63-7.29.63-10.2,0-2.25-.13-4.18-.38-5.71-.25-1.53-.64-2.65-1.02-3.25-.25-.41-.46-.56-.59-.62-.09-.04-.19-.07-.38-.07h-.02" fill="url(#Unbenannter_Verlauf_30)" stroke-width="0"/><path d="m55.92,96.45c-16.94,11.09-33.45,25.71-43.83,39.46-6.94,9.15-11.06,17.95-11.03,24.69,0,2.99.76,5.56,2.36,7.81.74,1.02,1.71,1.76,3.03,2.28,1.32.52,2.98.8,4.95.8h.03c.34,0,.68,0,1.04-.03,1.71-.39,3.5-1.21,5.37-2.47,2.71-1.83,5.55-4.58,8.39-8.09,5.69-7.02,11.43-17.06,16.81-28.69,5.18-11.18,10.05-23.83,14.36-36.75-.5.32-1,.65-1.51.98" fill="url(#Unbenannter_Verlauf_29)" stroke-width="0"/><path d="m61.61,92.87l-.78.47c-1.14.69-2.27,1.41-3.41,2.13-4.31,12.92-9.18,25.57-14.36,36.75-5.39,11.63-11.12,21.67-16.81,28.69-2.84,3.51-5.68,6.26-8.39,8.09-1.87,1.26-3.66,2.08-5.37,2.47,3.06-.14,6.74-.9,10.83-2.19,7.04-6.3,13.83-16.87,20.25-29.79,6.85-13.81,13.22-30.29,18.62-46.98-.19.11-.38.23-.58.35" fill="url(#Unbenannter_Verlauf_10)" stroke-width="0"/><rect x="63.81" y="87.4" width="0" height="0" transform="translate(-44.19 80.5) rotate(-50.21)" fill="#1d1d1b" stroke-width="0"/><polygon points="63.81 87.4 63.81 87.4 63.81 87.4 63.81 87.4 63.81 87.4" fill="#1d1d1b" stroke-width="0"/></svg>